<svg width="47" height="24" viewBox="0 0 47 24" fill="none" xmlns="http://www.w3.org/2000/svg">
<rect width="47" height="24" fill="white"/>
<path d="M13.4229 12.5379L14.8061 23.9928H14.1174C12.6332 23.9928 11.3827 22.8715 11.2024 21.3799L10.2835 13.7759H9.1968V10.4708H9.88431L9.88394 10.4678L9.88659 10.4708H10.3245C11.0309 10.4708 11.6054 9.88914 11.6054 9.17398V4.72051C11.6054 4.00522 11.0309 3.42365 10.3245 3.42365H9.11734C8.94731 2.30419 8.4253 1.27604 7.60516 0.468812C7.47884 0.344802 7.34766 0.227592 7.21204 0.118454H10.3245C12.8307 0.118454 14.8694 2.18282 14.8694 4.72053V9.174C14.8694 10.5003 14.3123 11.697 13.4229 12.5379Z" fill="#00822C"/>
<path d="M16.1693 0.139488H15.8031V23.9928H19.195V3.2032C19.195 1.51112 17.8404 0.139488 16.1693 0.139488Z" fill="#00822C"/>
<path d="M5.10361 19.7123C5.10361 20.7759 4.66069 20.9226 4.1819 20.9226C3.70312 20.9226 3.26007 20.7759 3.26007 19.7123V4.43076C3.26007 3.36729 3.70312 3.22065 4.1819 3.22065C4.66069 3.22065 5.10361 3.36731 5.10361 4.43076V19.7123ZM7.28147 1.33161C6.55249 0.547738 5.50961 0.150425 4.1819 0.150425C2.85418 0.150425 1.81119 0.547738 1.08236 1.33161C0.364251 2.10373 0.000167847 3.20084 0.000167847 4.5923V19.5508C0.000167847 20.9423 0.364233 22.0394 1.08236 22.8115C1.81119 23.5954 2.85418 23.9928 4.1819 23.9928C5.50961 23.9928 6.55249 23.5954 7.28147 22.8115C7.99956 22.0394 8.36364 20.9423 8.36364 19.5508V4.5923C8.36364 3.20084 7.99958 2.10374 7.28147 1.33161Z" fill="#00822C"/>
<path d="M46.154 0.150517V3.58545H43.6588V23.9997C43.2094 23.9997 42.7806 23.911 42.3881 23.7508C41.528 23.3986 40.8428 22.6997 40.502 21.8254C40.502 21.825 40.5017 21.8247 40.5017 21.8247C40.4595 21.7162 40.4229 21.6055 40.3916 21.4922C40.3325 21.278 40.2933 21.0552 40.2763 20.8262C40.2699 20.7399 40.2665 20.6529 40.2665 20.5648V3.58549H36.1613C36.299 2.66223 36.6375 1.90691 37.1723 1.33174C37.9013 0.547905 38.9442 0.150554 40.2718 0.150554H46.154L46.154 0.150517Z" fill="#00822C"/>
<path d="M36.1656 4.47772V13.8369L32.4801 -0.000217438H27.9792V19.7748H31.2084V6.37333L35.0097 20.6186C35.5409 22.6097 37.325 23.9928 39.3618 23.9928V4.4777H36.1656L36.1656 4.47772Z" fill="#00822C"/>
<path d="M23.4546 20.8155V13.7549H25.842V10.4709H23.4546V3.33114H27.0983V0.165054H20.0627V20.5578C20.0627 22.3909 21.4807 23.8885 23.2665 23.9874C23.3287 23.9909 23.3914 23.9928 23.4546 23.9928H31.2083V20.8155H23.4546L23.4546 20.8155Z" fill="#EE4037"/>
</svg>
